PathFileType	4	(X/Y/Z)	RBDS018static.trc
DataRate	CameraRate	NumFrames	NumMarkers	Units	OrigDataRate	OrigDataStartFrame	OrigNumFrames
150.000000	150.000000	4	48	mm	150.000000	93	150
Frame#	Time	L.Ankle			L.Ankle.Medial			L.ASIS			L.GTR			L.Heel.Bottom			L.Heel.Lateral			L.Heel.Top			L.HF			L.Iliac.Crest			L.Knee			L.Knee.Medial			L.MT1			L.MT2			L.MT5			L.PSIS			L.Shank.Bottom.Lateral			L.Shank.Bottom.Medial			L.Shank.Top.Lateral			L.Shank.Top.Medial			L.Thigh.Bottom.Lateral			L.Thigh.Bottom.Medial			L.Thigh.Top.Lateral			L.Thigh.Top.Medial			L.TT			R.Ankle			R.Ankle.Medial			R.ASIS			R.GTR			R.Heel.Bottom			R.Heel.Lateral			R.Heel.Top			R.HF			R.Iliac.Crest			R.Knee			R.Knee.Medial			R.MT1			R.MT2			R.MT5			R.PSIS			R.Shank.Bottom.Lateral			R.Shank.Bottom.Medial			R.Shank.Top.Lateral			R.Shank.Top.Medial			R.Thigh.Bottom.Lateral			R.Thigh.Bottom.Medial			R.Thigh.Top.Lateral			R.Thigh.Top.Medial			R.TT			
		X1	Y1	Z1	X2	Y2	Z2	X3	Y3	Z3	X4	Y4	Z4	X5	Y5	Z5	X6	Y6	Z6	X7	Y7	Z7	X8	Y8	Z8	X9	Y9	Z9	X10	Y10	Z10	X11	Y11	Z11	X12	Y12	Z12	X13	Y13	Z13	X14	Y14	Z14	X15	Y15	Z15	X16	Y16	Z16	X17	Y17	Z17	X18	Y18	Z18	X19	Y19	Z19	X20	Y20	Z20	X21	Y21	Z21	X22	Y22	Z22	X23	Y23	Z23	X24	Y24	Z24	X25	Y25	Z25	X26	Y26	Z26	X27	Y27	Z27	X28	Y28	Z28	X29	Y29	Z29	X30	Y30	Z30	X31	Y31	Z31	X32	Y32	Z32	X33	Y33	Z33	X34	Y34	Z34	X35	Y35	Z35	X36	Y36	Z36	X37	Y37	Z37	X38	Y38	Z38	X39	Y39	Z39	X40	Y40	Z40	X41	Y41	Z41	X42	Y42	Z42	X43	Y43	Z43	X44	Y44	Z44	X45	Y45	Z45	X46	Y46	Z46	X47	Y47	Z47	X48	Y48	Z48	

94	0.62	710.9119873046875	105.4942169189453	1044.264892578125	737.8941040039063	116.4368515014648	1127.945922851563	856.9190673828125	1074.3935546875	1127.907348632813	793.4522705078125	971.1187744140625	1048.484497070313	641.0436401367188	42.08172988891602	1087.298583984375	671.8373413085938	53.9882698059082	1040.946044921875	650.762451171875	91.87521362304688	1085.182373046875	732.7899780273438	497.8778381347656	1031.041015625	780.2769165039063	1141.69873046875	1081.162841796875	745.8056030273438	564.9920043945313	1042.28759765625	746.1849365234375	531.3424682617188	1170.245849609375	863.5848388671875	56.36552047729492	1128.281494140625	874.0984497070313	69.45417022705078	1074.6748046875	839.4771118164063	54.03949737548828	1014.850341796875	678.3147583007813	1080.220947265625	1182.388916015625	689.5609130859375	202.4232025146484	1034.41455078125	659.8773193359375	201.4669189453125	1076.234252929688	679.632080078125	282.2106018066406	1024.435546875	650.136962890625	285.4965209960938	1068.701171875	747.0162353515625	675.4848022460938	1032.387573242188	690.477294921875	681.1397705078125	1078.759887695313	753.18212890625	784.9216918945313	1028.0009765625	699.980224609375	789.9090576171875	1073.3955078125	790.3403930664063	463.8507690429688	1086.151123046875	710.2443237304688	106.9733276367188	1414.494506835938	733.16552734375	123.4112930297852	1330.654541015625	851.8590698242188	1075.954711914063	1361.662353515625	789.425048828125	970.5938110351563	1427.732177734375	639.6189575195313	42.90653991699219	1374.465454101563	662.7100219726563	59.86767959594727	1410.50244140625	650.949462890625	92.81990051269531	1373.448486328125	742.2149047851563	490.6994018554688	1437.752319335938	776.8245849609375	1142.973022460938	1387.400512695313	743.4779052734375	555.0973510742188	1431.373779296875	742.1546630859375	533.2923583984375	1299.501831054688	861.5757446289063	59.84183120727539	1326.3486328125	875.0581665039063	69.60659027099609	1377.267822265625	838.1788940429688	55.8728141784668	1437.67138671875	676.8989868164063	1084.262939453125	1291.48974609375	705.9196166992188	211.6270446777344	1436.09619140625	662.5375366210938	214.6760101318359	1400.891723632813	699.407958984375	291.9375610351563	1449.033081054688	658.3116455078125	293.9447631835938	1413.87109375	749.040771484375	668.6922607421875	1442.892578125	689.8024291992188	674.4667358398438	1400.286743164063	753.3797607421875	779.3047485351563	1447.7958984375	698.015625	783.9801635742188	1407.76416015625	795.227783203125	468.2672424316406	1387.115966796875	
95	0.6266666666666667	710.9093017578125	105.4900360107422	1044.267822265625	737.8956909179688	116.4394226074219	1127.949462890625	856.892822265625	1074.369995117188	1127.78369140625	793.4567260742188	971.1314086914063	1048.467041015625	641.0568237304688	42.06721115112305	1087.30322265625	671.8392944335938	53.9748420715332	1040.955810546875	650.76025390625	91.87578582763672	1085.175048828125	732.7504272460938	497.872802734375	1031.028442382813	780.2841186523438	1141.698852539063	1081.140625	745.7789916992188	564.9955444335938	1042.2783203125	746.1438598632813	531.3289184570313	1170.252807617188	863.5733032226563	56.3658561706543	1128.295043945313	874.10302734375	69.45745849609375	1074.670043945313	839.4800415039063	54.03798294067383	1014.858581542969	678.3255615234375	1080.247924804688	1182.372314453125	689.5518798828125	202.4259033203125	1034.425170898438	659.859375	201.4655914306641	1076.239379882813	679.6109008789063	282.2136535644531	1024.434326171875	650.1150512695313	285.5055847167969	1068.71484375	746.9908447265625	675.4916381835938	1032.358642578125	690.44482421875	681.1427612304688	1078.73291015625	753.1680297851563	784.9244384765625	1027.980102539063	699.9657592773438	789.9179077148438	1073.3779296875	790.3178100585938	463.8565368652344	1086.124389648438	710.2352294921875	106.9790878295898	1414.49169921875	733.1633911132813	123.416633605957	1330.6435546875	851.8682250976563	1075.9462890625	1361.638305664063	789.4256591796875	970.59423828125	1427.711547851563	639.6227416992188	42.904052734375	1374.4677734375	662.7138671875	59.86676788330078	1410.495849609375	650.9488525390625	92.82351684570313	1373.449340820313	742.195068359375	490.697998046875	1437.732055664063	776.8524169921875	1142.978759765625	1387.3955078125	743.4575805664063	555.0930786132813	1431.361083984375	742.1367797851563	533.3038330078125	1299.493041992188	861.5817260742188	59.83665466308594	1326.357421875	875.0648193359375	69.60478973388672	1377.268432617188	838.1812744140625	55.86698150634766	1437.673461914063	676.9205932617188	1084.285400390625	1291.475341796875	705.9041748046875	211.6314697265625	1436.086181640625	662.5291748046875	214.6772918701172	1400.86962890625	699.3850708007813	291.9424133300781	1449.029418945313	658.3018188476563	293.9444885253906	1413.854248046875	749.0178833007813	668.6858520507813	1442.878662109375	689.783203125	674.465576171875	1400.281616210938	753.3614501953125	779.3048706054688	1447.777099609375	698.0101318359375	783.9749755859375	1407.750732421875	795.2142333984375	468.2667541503906	1387.10400390625	
96	0.6333333333333334	710.9011840820313	105.4686279296875	1044.267700195313	737.8954467773438	116.4528274536133	1127.937377929688	856.9415893554688	1074.391235351563	1127.89111328125	793.4475708007813	971.1339111328125	1048.4501953125	641.0554809570313	42.06313323974609	1087.30224609375	671.8394775390625	53.97501754760742	1040.947387695313	650.7589721679688	91.87006378173828	1085.174560546875	732.7097778320313	497.8713073730469	1031.02783203125	780.3179931640625	1141.718994140625	1081.130737304688	745.7186889648438	564.998291015625	1042.270385742188	746.1057739257813	531.3469848632813	1170.244506835938	863.5757446289063	56.37068939208984	1128.301025390625	874.100830078125	69.45732116699219	1074.672729492188	839.4686889648438	54.03503799438477	1014.854736328125	678.33447265625	1080.2646484375	1182.358642578125	689.5234375	202.4239196777344	1034.424194335938	659.8404541015625	201.4565734863281	1076.246215820313	679.5791015625	282.2139282226563	1024.43505859375	650.0882568359375	285.4931030273438	1068.711059570313	746.9579467773438	675.4963989257813	1032.340576171875	690.4205322265625	681.1502075195313	1078.70947265625	753.1590576171875	784.9288940429688	1027.982666015625	699.9500732421875	789.926025390625	1073.361450195313	790.2809448242188	463.8713684082031	1086.120849609375	710.233642578125	106.9895706176758	1414.48828125	733.1673583984375	123.4038543701172	1330.64697265625	851.8943481445313	1075.935913085938	1361.603759765625	789.4273071289063	970.5913696289063	1427.703247070313	639.6271362304688	42.89604949951172	1374.4638671875	662.71435546875	59.86876678466797	1410.497924804688	650.9454345703125	92.82036590576172	1373.446533203125	742.1637573242188	490.69580078125	1437.731079101563	776.8936157226563	1142.973876953125	1387.36767578125	743.4320678710938	555.095947265625	1431.348266601563	742.1239624023438	533.2940063476563	1299.482666015625	861.579345703125	59.84467697143555	1326.344482421875	875.0507202148438	69.60913848876953	1377.269409179688	838.1808471679688	55.91418075561523	1437.696411132813	676.9310913085938	1084.297241210938	1291.46630859375	705.8880004882813	211.6336669921875	1436.077026367188	662.5188598632813	214.6746826171875	1400.856689453125	699.3748779296875	291.9461975097656	1449.019897460938	658.2929077148438	293.95361328125	1413.844360351563	748.999755859375	668.6964721679688	1442.865844726563	689.7703857421875	674.4597778320313	1400.254516601563	753.3544921875	779.30810546875	1447.760620117188	697.9966430664063	783.9829711914063	1407.737060546875	795.1954345703125	468.27001953125	1387.104248046875	
97	0.64	710.9072875976563	105.4763641357422	1044.258911132813	737.8870849609375	116.4455795288086	1127.940307617188	856.9462280273438	1074.392944335938	1127.871704101563	793.4356689453125	971.1349487304688	1048.438720703125	641.0480346679688	42.06441497802734	1087.287719726563	671.8494262695313	53.96337127685547	1040.950927734375	650.7589721679688	91.86689758300781	1085.183471679688	732.6839599609375	497.8705444335938	1031.027954101563	780.3310546875	1141.731323242188	1081.0986328125	745.6964721679688	564.987060546875	1042.266235351563	746.072265625	531.339599609375	1170.23974609375	863.58447265625	56.37613296508789	1128.291137695313	874.097900390625	69.44976806640625	1074.675659179688	839.4655151367188	54.02223205566406	1014.861877441406	678.3472290039063	1080.275756835938	1182.344360351563	689.5147705078125	202.4152984619141	1034.425659179688	659.8375244140625	201.4534759521484	1076.25390625	679.5611572265625	282.2048645019531	1024.443603515625	650.0741577148438	285.4868469238281	1068.709838867188	746.9247436523438	675.4990234375	1032.331176757813	690.3943481445313	681.1492919921875	1078.686889648438	753.1361083984375	784.922119140625	1027.972290039063	699.921630859375	789.9155883789063	1073.354370117188	790.2696533203125	463.870361328125	1086.0908203125	710.2369995117188	106.9874114990234	1414.477905273438	733.1677856445313	123.4007797241211	1330.64697265625	851.9196166992188	1075.9345703125	1361.581909179688	789.4298095703125	970.5982666015625	1427.665283203125	639.628173828125	42.89310073852539	1374.466186523438	662.7069091796875	59.87410354614258	1410.498779296875	650.9521484375	92.81956481933594	1373.439331054688	742.146484375	490.7125549316406	1437.714721679688	776.93701171875	1142.979125976563	1387.36669921875	743.4124145507813	555.1004028320313	1431.331176757813	742.1133422851563	533.2816162109375	1299.470947265625	861.5822143554688	59.84194946289063	1326.353637695313	875.0537719726563	69.60743713378906	1377.26171875	838.1834716796875	55.90845108032227	1437.697387695313	676.953857421875	1084.316284179688	1291.45556640625	705.8858642578125	211.6334686279297	1436.070922851563	662.51416015625	214.6763153076172	1400.839111328125	699.3580322265625	291.9513854980469	1449.013427734375	658.2863159179688	293.93994140625	1413.820434570313	748.9926147460938	668.6911010742188	1442.85400390625	689.7570190429688	674.4683837890625	1400.22412109375	753.33935546875	779.3090209960938	1447.747802734375	697.9849243164063	783.9774169921875	1407.710571289063	795.181640625	468.2657775878906	1387.092163085938	
